<svg xmlns="http://www.w3.org/2000/svg" xmlns:xlink="http://www.w3.org/1999/xlink" width="500" zoomAndPan="magnify" viewBox="0 0 375 374.999991" height="500" preserveAspectRatio="xMidYMid meet" version="1.0"><defs><g/></defs><g fill="#ffffff" fill-opacity="1"><g transform="translate(0.761723, 240.374984)"><g><path d="M 122.210938 -132.125 L 84.539062 -132.125 L 84.539062 -80.214844 L 46.6875 -80.214844 L 46.6875 -132.125 L 9.011719 -132.125 L 9.011719 0 L 46.6875 0 L 46.6875 -61.285156 L 84.539062 -61.285156 L 84.539062 0 L 122.210938 0 Z M 122.210938 -132.125 "/></g></g></g><g fill="#ffffff" fill-opacity="1"><g transform="translate(131.980837, 240.374984)"><g><path d="M 74.445312 -103.828125 L 107.433594 -103.828125 L 102.746094 -132.125 L 8.292969 -132.125 L 3.605469 -103.828125 L 36.589844 -103.828125 L 36.589844 0 L 74.445312 0 Z M 74.445312 -103.828125 "/></g></g></g><g fill="#ffffff" fill-opacity="1"><g transform="translate(243.012393, 240.374984)"><g><path d="M 122.210938 -132.125 L 84.539062 -132.125 L 84.539062 -80.214844 L 46.6875 -80.214844 L 46.6875 -132.125 L 9.011719 -132.125 L 9.011719 0 L 46.6875 0 L 46.6875 -61.285156 L 84.539062 -61.285156 L 84.539062 0 L 122.210938 0 Z M 122.210938 -132.125 "/></g></g></g></svg>
